<svg width="296" height="181" viewBox="0 0 296 181" fill="none" xmlns="http://www.w3.org/2000/svg">
<g clip-path="url(#clip0_204_10)">
<path d="M99.5117 117.779C97.8516 117.779 96.4193 117.91 95.2148 118.17C94.0755 118.398 92.9036 119.049 91.6992 120.123C90.5273 121.1 89.3229 122.467 88.0859 124.225C87.5 125.104 86.8978 125.982 86.2793 126.861C85.6934 127.708 85.1074 128.57 84.5215 129.449C83.1543 131.305 81.5104 132.867 79.5898 134.137C74.9674 137.587 68.278 140.273 59.5215 142.193C50.8952 144.081 41.2598 145.025 30.6152 145.025C26.6439 145.025 22.9004 144.83 19.3848 144.439C15.3809 144.114 12.4349 143.316 10.5469 142.047C7.45443 140.126 5.9082 136.627 5.9082 131.549C5.9082 128.294 6.1849 124.973 6.73828 121.588C7.22656 117.942 7.77995 116.119 8.39844 116.119C8.78906 116.119 9.16341 117.242 9.52148 119.488C9.74935 121.734 10.5306 123.492 11.8652 124.762C13.2324 126.031 15.4134 127.057 18.4082 127.838C21.403 128.619 25.765 129.026 31.4941 129.059C36.1816 129.156 41.4388 129.075 47.2656 128.814C53.0924 128.554 57.8288 128.18 61.4746 127.691C65.1204 127.203 69.5801 126.145 74.8535 124.518C78.304 123.508 81.1686 122.402 83.4473 121.197C85.7585 119.993 87.5814 118.707 88.916 117.34C89.0462 117.242 89.6973 116.412 90.8691 114.85C92.041 113.255 93.0013 112.083 93.75 111.334C95.2474 109.739 97.168 108.697 99.5117 108.209C101.139 109.283 101.823 110.911 101.562 113.092C101.042 115.208 100.358 116.77 99.5117 117.779ZM61.1328 90.6309C61.3932 91.5423 61.377 92.4863 61.084 93.4629C60.8236 94.4395 60.3516 95.4486 59.668 96.4902C59.1146 97.3366 58.5449 98.1341 57.959 98.8828C57.4056 99.599 56.7871 100.283 56.1035 100.934C55.6803 101.389 55.306 101.715 54.9805 101.91C54.6549 102.105 54.3783 102.236 54.1504 102.301C53.9225 102.333 53.7272 102.317 53.5645 102.252C53.4017 102.187 53.2552 102.105 53.125 102.008C51.9857 101.096 50.8626 100.185 49.7559 99.2734C48.6816 98.3294 47.4935 97.4505 46.1914 96.6367C46.0286 96.4089 45.9473 96.2461 45.9473 96.1484C45.9473 96.0182 46.0286 95.8229 46.1914 95.5625L53.6133 84.1367C53.8411 83.8438 54.0527 83.7135 54.248 83.7461C54.4759 83.7461 54.7201 83.8275 54.9805 83.9902C55.6315 84.3809 56.2826 84.804 56.9336 85.2598C57.6172 85.6829 58.2357 86.1712 58.7891 86.7246C59.3424 87.278 59.8307 87.8802 60.2539 88.5312C60.6771 89.1497 60.9701 89.8496 61.1328 90.6309ZM46.1914 91.5586C46.1914 91.6888 46.2077 91.7865 46.2402 91.8516C46.2402 91.9492 46.2565 92.0306 46.2891 92.0957C46.2891 92.1608 46.2891 92.2422 46.2891 92.3398C46.3216 92.4049 46.3379 92.4701 46.3379 92.5352V93.2188C46.3379 93.2839 46.3216 93.3652 46.2891 93.4629C46.2891 93.528 46.2891 93.5931 46.2891 93.6582L46.1426 94.2441C46.1426 94.3092 46.1263 94.3581 46.0938 94.3906C46.0938 94.4232 46.0938 94.472 46.0938 94.5371L45.8984 95.123C45.8333 95.2533 45.7682 95.3835 45.7031 95.5137C45.6706 95.6439 45.6217 95.7741 45.5566 95.9043C45.5566 95.9368 45.5404 95.9694 45.5078 96.002C45.5078 96.002 45.5078 96.0182 45.5078 96.0508L45.2637 96.4902C45.1986 96.653 45.1172 96.7995 45.0195 96.9297C44.9219 97.0273 44.8405 97.1413 44.7754 97.2715C44.7103 97.3366 44.6777 97.3854 44.6777 97.418L44.0918 98.2969L43.8477 98.6387C43.7826 98.7038 43.7174 98.7852 43.6523 98.8828C43.6198 98.9805 43.571 99.0618 43.5059 99.127C43.3757 99.3223 43.2617 99.4688 43.1641 99.5664L42.3828 100.543C42.3177 100.608 42.2852 100.657 42.2852 100.689C42.2201 100.755 42.1387 100.836 42.041 100.934C41.9759 101.031 41.8945 101.113 41.7969 101.178L41.5039 101.471C41.4062 101.633 41.276 101.764 41.1133 101.861L40.625 102.35L40.3809 102.545C40.0228 102.838 39.7135 103.033 39.4531 103.131L39.1602 103.229H38.8184C38.5579 103.229 38.3301 103.131 38.1348 102.936C37.4186 102.382 36.7188 101.812 36.0352 101.227C35.3841 100.641 34.6842 100.071 33.9355 99.5176C33.7077 99.3223 33.4798 99.1432 33.252 98.9805C32.5684 98.4596 31.901 97.9876 31.25 97.5645C31.2174 97.5645 31.2012 97.5482 31.2012 97.5156C31.0384 97.3529 30.957 97.2064 30.957 97.0762C30.957 96.946 31.0384 96.7507 31.2012 96.4902L38.6719 85.1133C38.6719 85.0807 38.6882 85.0482 38.7207 85.0156C38.9486 84.7227 39.1927 84.6087 39.4531 84.6738C39.4531 84.6738 39.4857 84.6901 39.5508 84.7227C39.5833 84.7227 39.6159 84.7389 39.6484 84.7715L39.9902 84.918C40.0553 84.9831 40.1204 85.0319 40.1855 85.0645C40.2507 85.0645 40.3158 85.097 40.3809 85.1621C40.446 85.1947 40.5111 85.2272 40.5762 85.2598C40.6413 85.2923 40.7064 85.3411 40.7715 85.4062C40.9017 85.4714 41.0319 85.5527 41.1621 85.6504C41.3574 85.7806 41.5527 85.9108 41.748 86.041C41.9434 86.1387 42.1387 86.2689 42.334 86.4316L42.5293 86.5781C43.0501 86.9688 43.5872 87.4408 44.1406 87.9941L44.7266 88.6777L45.166 89.2637C45.3939 89.5892 45.5729 89.9147 45.7031 90.2402C45.7682 90.3379 45.8333 90.4844 45.8984 90.6797L46.0449 91.1191C46.0775 91.1517 46.0938 91.1842 46.0938 91.2168C46.0938 91.2493 46.11 91.2982 46.1426 91.3633C46.1426 91.4609 46.1589 91.526 46.1914 91.5586ZM99.5117 108.43C98.6654 109.992 98.2259 111.555 98.1934 113.117C98.1283 114.68 98.5677 116.307 99.5117 118C101.4 118.358 103.044 117.642 104.443 115.852C105.843 114.061 106.868 112.141 107.52 110.09C108.171 108.007 108.61 106.509 108.838 105.598C109.066 104.686 109.147 104.035 109.082 103.645C109.082 103.319 108.919 103.156 108.594 103.156C108.398 103.156 108.057 103.547 107.568 104.328C105.745 107.062 104.785 108.479 104.688 108.576C103.874 109.585 102.148 109.536 99.5117 108.43ZM116.748 166.486C117.008 167.398 116.992 168.342 116.699 169.318C116.439 170.295 115.967 171.304 115.283 172.346C114.73 173.192 114.16 173.973 113.574 174.689C113.021 175.438 112.402 176.138 111.719 176.789C111.296 177.245 110.921 177.57 110.596 177.766C110.27 177.961 109.993 178.075 109.766 178.107C109.538 178.173 109.342 178.173 109.18 178.107C109.017 178.042 108.87 177.961 108.74 177.863C107.601 176.952 106.478 176.024 105.371 175.08C104.297 174.169 103.109 173.306 101.807 172.492C101.644 172.264 101.562 172.085 101.562 171.955C101.562 171.857 101.644 171.678 101.807 171.418L109.229 159.992C109.456 159.699 109.668 159.553 109.863 159.553C110.091 159.585 110.335 159.683 110.596 159.846C111.247 160.236 111.898 160.643 112.549 161.066C113.232 161.522 113.851 162.027 114.404 162.58C114.958 163.133 115.446 163.719 115.869 164.338C116.292 164.989 116.585 165.705 116.748 166.486ZM101.807 167.414C101.807 167.544 101.823 167.642 101.855 167.707C101.855 167.805 101.872 167.886 101.904 167.951C101.904 168.016 101.904 168.081 101.904 168.146C101.937 168.244 101.953 168.326 101.953 168.391V169.074C101.953 169.139 101.937 169.204 101.904 169.27C101.904 169.367 101.904 169.449 101.904 169.514L101.758 170.1C101.758 170.165 101.742 170.214 101.709 170.246C101.709 170.279 101.709 170.327 101.709 170.393L101.514 170.979C101.449 171.109 101.383 171.239 101.318 171.369C101.286 171.499 101.237 171.63 101.172 171.76C101.172 171.792 101.156 171.809 101.123 171.809C101.123 171.841 101.123 171.874 101.123 171.906L100.879 172.346C100.814 172.508 100.732 172.639 100.635 172.736C100.537 172.867 100.456 172.997 100.391 173.127C100.326 173.192 100.293 173.241 100.293 173.273L99.707 174.152L99.4629 174.494C99.3978 174.559 99.349 174.641 99.3164 174.738C99.2513 174.836 99.1862 174.917 99.1211 174.982C98.9909 175.178 98.877 175.324 98.7793 175.422L97.998 176.398C97.9329 176.464 97.9004 176.512 97.9004 176.545C97.8353 176.61 97.7702 176.691 97.7051 176.789C97.6074 176.887 97.5098 176.968 97.4121 177.033L97.1191 177.326C97.0215 177.489 96.8913 177.619 96.7285 177.717L96.2402 178.205L95.9961 178.4C95.638 178.693 95.3288 178.889 95.0684 178.986L94.7754 179.084H94.4336C94.1732 179.084 93.9453 178.986 93.75 178.791C93.0339 178.238 92.3503 177.668 91.6992 177.082C91.0156 176.496 90.2995 175.926 89.5508 175.373C89.3229 175.178 89.0951 174.999 88.8672 174.836C88.1836 174.315 87.5163 173.843 86.8652 173.42C86.8327 173.42 86.8164 173.404 86.8164 173.371C86.6536 173.208 86.5723 173.062 86.5723 172.932C86.5723 172.801 86.6536 172.606 86.8164 172.346L94.2871 160.969C94.2871 160.936 94.3034 160.904 94.3359 160.871C94.5638 160.578 94.8079 160.464 95.0684 160.529C95.0684 160.529 95.1009 160.546 95.166 160.578C95.1986 160.578 95.2311 160.594 95.2637 160.627L95.6055 160.773C95.6706 160.839 95.7357 160.871 95.8008 160.871C95.8659 160.904 95.931 160.952 95.9961 161.018C96.0612 161.05 96.1263 161.083 96.1914 161.115C96.2565 161.148 96.3216 161.197 96.3867 161.262C96.5169 161.327 96.6471 161.408 96.7773 161.506C96.9727 161.636 97.168 161.75 97.3633 161.848C97.5586 161.978 97.7539 162.124 97.9492 162.287L98.1445 162.434C98.4375 162.661 98.7142 162.889 98.9746 163.117C99.235 163.345 99.4954 163.589 99.7559 163.85L100.342 164.533L100.781 165.119C101.009 165.445 101.188 165.77 101.318 166.096C101.383 166.193 101.449 166.34 101.514 166.535L101.66 166.975C101.693 167.007 101.709 167.04 101.709 167.072C101.709 167.105 101.725 167.154 101.758 167.219C101.758 167.316 101.774 167.382 101.807 167.414ZM122.412 116.412C122.152 119.667 121.419 122.434 120.215 124.713C119.01 126.992 117.643 128.131 116.113 128.131C116.113 126.894 116.504 123.053 117.285 116.607C118.099 110.162 118.701 105.556 119.092 102.789C119.515 99.9896 119.987 97.0273 120.508 93.9023C121.029 90.7773 121.533 88.2546 122.021 86.334C122.575 84.7389 123.161 83.1276 123.779 81.5C124.43 79.8724 125.098 78.2611 125.781 76.666C126.237 75.9499 126.53 76.0638 126.66 77.0078C125.846 82.4115 125.098 88.0267 124.414 93.8535C123.73 99.6478 123.258 103.798 122.998 106.305C122.77 108.811 122.656 110.276 122.656 110.699C122.493 113.368 122.412 115.273 122.412 116.412ZM148.34 129.693C147.786 129.889 147.201 130.019 146.582 130.084C145.996 130.117 145.426 130.165 144.873 130.23C143.571 130.296 142.529 130.605 141.748 131.158C140.674 131.907 138.851 134.088 136.279 137.701C133.447 141.9 130.225 144 126.611 144C122.575 144 119.678 142.242 117.92 138.727C116.618 135.602 116.032 132.07 116.162 128.131C116.52 122.695 117.253 118.642 118.359 115.973C119.531 113.303 120.638 111.969 121.68 111.969C121.908 111.969 122.168 112.18 122.461 112.604C122.461 114.101 122.461 115.598 122.461 117.096C122.591 118.528 122.965 120.188 123.584 122.076C124.235 123.964 125.309 125.494 126.807 126.666C128.402 127.74 130.436 128.277 132.91 128.277C136.491 128.212 139.209 127.122 141.064 125.006C142.92 122.89 144.32 121.702 145.264 121.441C145.817 121.279 146.436 121.279 147.119 121.441C147.803 121.572 148.405 121.62 148.926 121.588C150.553 121.523 152.002 120.937 153.271 119.83C154.574 118.691 155.729 117.242 156.738 115.484C156.771 115.387 156.836 115.289 156.934 115.191C157.129 114.996 157.357 114.947 157.617 115.045C158.171 115.208 158.659 115.305 159.082 115.338C159.538 115.37 159.977 115.24 160.4 114.947C160.856 114.654 161.328 114.133 161.816 113.385C162.305 112.604 162.874 111.48 163.525 110.016C164.014 108.616 164.486 108.03 164.941 108.258C165.267 108.323 165.316 109.072 165.088 110.504C164.372 113.661 163.493 116.233 162.451 118.219C161.442 120.172 160.4 121.588 159.326 122.467C158.252 123.313 156.868 123.948 155.176 124.371C154.232 125.413 153.141 126.438 151.904 127.447C150.667 128.424 149.479 129.173 148.34 129.693ZM198.535 125.299C196.582 130.019 194.938 133.404 193.604 135.455C192.301 137.506 191.178 138.906 190.234 139.654C189.29 140.37 187.939 141.038 186.182 141.656C184.456 142.275 182.617 142.828 180.664 143.316C178.711 143.772 177.262 144 176.318 144C175.928 144 175.732 143.984 175.732 143.951C175.472 143.626 176.807 142.535 179.736 140.68C182.699 138.824 185.14 137.132 187.061 135.602C188.981 134.072 190.69 132.395 192.188 130.572C193.717 128.749 194.808 126.845 195.459 124.859C195.101 125.022 194.661 125.185 194.141 125.348C193.62 125.478 193.066 125.592 192.48 125.689C191.927 125.755 191.39 125.803 190.869 125.836C190.348 125.868 189.893 125.852 189.502 125.787C187.646 125.657 186.1 125.038 184.863 123.932C183.659 122.792 183.089 121.409 183.154 119.781C183.252 118.967 183.48 118.007 183.838 116.9C184.196 115.794 184.945 114.052 186.084 111.676C187.223 109.267 188.46 107.281 189.795 105.719C191.162 104.156 192.432 103.375 193.604 103.375C195.622 103.375 197.298 104.238 198.633 105.963C199.967 107.656 200.765 109.706 201.025 112.115C201.09 113.32 201.058 114.524 200.928 115.729C200.83 116.933 200.684 117.942 200.488 118.756C200.326 119.537 200.065 120.562 199.707 121.832C199.349 123.069 198.958 124.225 198.535 125.299ZM276.221 8.42578C275.081 9.5 273.128 11.0462 270.361 13.0645C267.594 15.0501 262.956 18.2077 256.445 22.5371C256.217 22.5697 256.266 22.2604 256.592 21.6094C256.95 20.9583 257.568 20.1283 258.447 19.1191C259.977 17.9147 262.272 16.2383 265.332 14.0898C268.392 11.9089 272.559 9.01172 277.832 5.39844C278.874 4.8776 278.337 5.88672 276.221 8.42578ZM221.631 50.5156C223.682 48.9531 225.716 47.5371 227.734 46.2676C229.753 44.998 231.787 43.6797 233.838 42.3125C262.256 23.1393 278.711 11.7949 283.203 8.2793C288.314 4.30794 290.983 2.17578 291.211 1.88281C292.253 1.19922 292.464 1.60612 291.846 3.10352C291.26 4.56836 288.851 7.90495 284.619 13.1133C277.262 19.7539 267.92 26.8665 256.592 34.4512C245.264 42.0033 233.512 49.3763 221.338 56.5703C220.524 57.1237 219.727 57.6445 218.945 58.1328C218.197 58.5885 217.464 59.0117 216.748 59.4023C215.12 60.3789 214.323 60.444 214.355 59.5977C214.355 59.2396 215.446 57.5957 217.627 54.666C218.994 52.9408 220.329 51.5573 221.631 50.5156ZM195.117 120.926C195.02 120.665 194.938 120.438 194.873 120.242C194.775 120.014 194.71 119.754 194.678 119.461C194.58 118.777 194.531 118.159 194.531 117.605C194.531 116.336 194.906 115.278 195.654 114.432C196.403 113.553 197.624 112.902 199.316 112.479C200.944 112.023 202.441 110.883 203.809 109.061C205.208 107.205 206.055 104.487 206.348 100.906C206.673 93.224 206.966 87.8203 207.227 84.6953C207.52 81.668 207.829 79.6009 208.154 78.4941C208.415 77.5501 209.098 75.1738 210.205 71.3652C211.312 67.5241 212.386 64.1712 213.428 61.3066C213.851 60.8509 214.046 60.9974 214.014 61.7461C213.395 65.9128 212.972 71.235 212.744 77.7129C212.516 84.1908 212.272 89.7083 212.012 94.2656C211.621 99.1484 210.254 104.194 207.91 109.402C205.534 114.643 203.125 118.484 200.684 120.926C199.935 121.642 199.121 122.326 198.242 122.977C197.168 123.66 196.37 124.116 195.85 124.344L195.117 120.926ZM242.773 125.299C240.82 130.019 239.176 133.404 237.842 135.455C236.54 137.506 235.417 138.906 234.473 139.654C233.529 140.37 232.178 141.038 230.42 141.656C228.695 142.275 226.855 142.828 224.902 143.316C222.949 143.772 221.501 144 220.557 144C220.166 144 219.971 143.984 219.971 143.951C219.71 143.626 221.045 142.535 223.975 140.68C226.937 138.824 229.378 137.132 231.299 135.602C233.219 134.072 234.928 132.395 236.426 130.572C237.956 128.749 239.046 126.845 239.697 124.859C239.339 125.022 238.9 125.185 238.379 125.348C237.858 125.478 237.305 125.592 236.719 125.689C236.165 125.755 235.628 125.803 235.107 125.836C234.587 125.868 234.131 125.852 233.74 125.787C231.885 125.657 230.339 125.038 229.102 123.932C227.897 122.792 227.327 121.409 227.393 119.781C227.49 118.967 227.718 118.007 228.076 116.9C228.434 115.794 229.183 114.052 230.322 111.676C231.462 109.267 232.699 107.281 234.033 105.719C235.4 104.156 236.67 103.375 237.842 103.375C239.86 103.375 241.536 104.238 242.871 105.963C244.206 107.656 245.003 109.706 245.264 112.115C245.329 113.32 245.296 114.524 245.166 115.729C245.068 116.933 244.922 117.942 244.727 118.756C244.564 119.537 244.303 120.562 243.945 121.832C243.587 123.069 243.197 124.225 242.773 125.299ZM239.355 120.926C239.258 120.665 239.176 120.438 239.111 120.242C239.014 120.014 238.949 119.754 238.916 119.461C238.818 118.777 238.77 118.159 238.77 117.605C238.77 116.336 239.16 115.018 239.941 113.65C240.723 112.381 241.96 111.535 243.652 111.111C245.28 110.656 246.598 109.777 247.607 108.475C248.975 106.749 249.967 104.227 250.586 100.906C250.911 89.3177 251.204 81.9609 251.465 78.8359C251.758 75.8086 252.067 73.7415 252.393 72.6348C252.653 71.6908 253.337 69.3145 254.443 65.5059C255.55 61.6647 256.624 58.3118 257.666 55.4473C258.089 54.9915 258.285 55.138 258.252 55.8867C257.633 60.0534 257.21 66.3522 256.982 74.7832C256.755 83.2142 256.51 89.7083 256.25 94.2656C255.859 99.1484 254.492 104.194 252.148 109.402C249.772 114.643 247.363 118.484 244.922 120.926C244.173 121.642 243.359 122.326 242.48 122.977C241.406 123.66 240.609 124.116 240.088 124.344L239.355 120.926Z" fill="#F7C35F"/>
</g>
<defs>
<clipPath id="clip0_204_10">
<rect width="296" height="181" fill="white"/>
</clipPath>
</defs>
</svg>
